<?xml version="1.0" encoding="UTF-8"?>
<svg width="161px" height="28px" viewBox="0 0 161 28" version="1.1" xmlns="http://www.w3.org/2000/svg" xmlns:xlink="http://www.w3.org/1999/xlink">    
    <title>SINE Foundation e.V.</title>
    <desc></desc>
    <g id="Page-1" stroke="none" stroke-width="1" fill="none" fill-rule="evenodd">
        <g id="sine" transform="translate(1.000000, 1.000000)" fill-rule="nonzero">
            <line x1="26" y1="13" x2="45" y2="13" id="Path" stroke="#ffffff" stroke-width="1.5" fill="#ffffff"></line>
            <line x1="71" y1="13" x2="89" y2="13" id="Path" stroke="#ffffff" stroke-width="1.5" fill="#ffffff"></line>
            <line x1="114.5" y1="13" x2="133" y2="13" id="Path" stroke="#ffffff" stroke-width="1.5" fill="#ffffff"></line>
            <g id="Group">
                <circle id="Oval" stroke="#ffffff" stroke-width="1.5" cx="13" cy="13" r="13"></circle>
                <path id="Path" fill="#ffffff" d="M13.2359,19.204 C14.5279,19.204 15.5819,18.881 16.3979,18.218 C17.2139,17.555 17.6389,16.705 17.6389,15.668 C17.6389,14.801 17.3839,14.104 16.8909,13.594 C16.3979,13.084 15.6329,12.727 14.5789,12.506 L12.1989,12.013 C11.3829,11.86 10.8049,11.639 10.4989,11.35 C10.1929,11.078 10.0399,10.653 10.0399,10.092 C10.0399,9.429 10.2949,8.885 10.8049,8.46 C11.3149,8.052 12.0119,7.831 12.8619,7.831 C13.7289,7.831 14.4429,8.035 15.0039,8.409 C15.5479,8.783 15.8879,9.31 15.9899,9.973 L17.4009,9.973 C17.2819,8.919 16.8229,8.103 16.0409,7.525 C15.2419,6.947 14.1709,6.658 12.8449,6.658 C11.6039,6.658 10.5839,6.998 9.8019,7.644 C9.0029,8.307 8.61188,9.14 8.61188,10.143 C8.61188,11.01 8.84988,11.707 9.3599,12.217 C9.8699,12.744 10.6519,13.101 11.7059,13.288 L14.0179,13.747 C14.7829,13.9 15.3439,14.138 15.7009,14.444 C16.0409,14.75 16.2279,15.192 16.2279,15.736 C16.2279,16.45 15.9389,17.011 15.3949,17.419 C14.8509,17.827 14.1199,18.031 13.2189,18.031 C12.1309,18.031 11.2809,17.81 10.6689,17.368 C10.0569,16.926 9.6999,16.263 9.6319,15.413 L8.22088,15.413 C8.28888,16.62 8.78188,17.555 9.6659,18.218 C10.5499,18.881 11.7399,19.204 13.2359,19.204 Z"></path>
            </g>
            <g id="Group" transform="translate(45.000000, 0.000000)">
                <circle id="Oval" stroke="#ffffff"  stroke-width="1.5"  cx="13" cy="13" r="13"></circle>
                <polygon id="Path" fill="#ffffff" points="13.7188 19 13.7188 6.862 12.2568 6.862 12.2568 19"></polygon>
            </g>
            <g id="Group" transform="translate(89.000000, 0.000000)">
                <circle id="Oval" stroke="#ffffff"  stroke-width="1.5"  cx="13" cy="13" r="13"></circle>
                <polygon id="Path" fill="#ffffff" points="8.1313 6.862 8.1313 19 9.5593 19 9.5593 8.647 9.5933 8.647 16.495 19 17.855 19 17.855 6.862 16.444 6.862 16.444 16.552 16.41 16.552 9.9333 6.862"></polygon>
            </g>
            <g id="Group" transform="translate(133.000000, 0.000000)">
                <circle id="Oval" stroke="#ffffff"  stroke-width="1.5" cx="13" cy="13" r="13"></circle>
                <polygon id="Path" fill="#ffffff" points="17.338 17.776 10.572 17.776 10.572 13.56 16.573 13.56 16.573 12.319 10.572 12.319 10.572 8.086 17.321 8.086 17.321 6.862 9.127 6.862 9.127 19 17.338 19"></polygon>
            </g>
        </g>
    </g>
</svg>